<svg width="24" height="24" viewBox="0 0 24 24" fill="none" xmlns="http://www.w3.org/2000/svg">
<path d="M11.0022 5.00001V16.86L6.64223 13.23C6.43801 13.0603 6.17473 12.9786 5.9103 13.003C5.64588 13.0274 5.40197 13.1558 5.23223 13.36C5.06249 13.5642 4.98083 13.8275 5.00521 14.0919C5.02959 14.3564 5.15801 14.6003 5.36223 14.77L11.3622 19.77C11.41 19.8036 11.4601 19.8337 11.5122 19.86C11.5622 19.86 11.5922 19.86 11.6422 19.93C11.7569 19.9753 11.8789 19.9991 12.0022 20C12.1255 19.9991 12.2476 19.9753 12.3622 19.93C12.4122 19.93 12.4422 19.93 12.4922 19.86C12.5444 19.8337 12.5945 19.8036 12.6422 19.77L18.6422 14.77C18.7551 14.676 18.8459 14.5582 18.9081 14.4252C18.9703 14.2921 19.0025 14.1469 19.0022 14C19.0027 13.7664 18.9213 13.5399 18.7722 13.36C18.6883 13.2587 18.5852 13.175 18.4688 13.1137C18.3525 13.0523 18.2252 13.0145 18.0942 13.0025C17.9632 12.9904 17.8311 13.0043 17.7055 13.0433C17.5799 13.0824 17.4633 13.1458 17.3622 13.23L13.0022 16.86L13.0022 5.00001C13.0022 4.73479 12.8969 4.48044 12.7093 4.2929C12.5218 4.10536 12.2674 4.00001 12.0022 4.00001C11.737 4.00001 11.4827 4.10536 11.2951 4.2929C11.1076 4.48044 11.0022 4.73479 11.0022 5.00001Z" fill="black"/>
</svg>
