<svg width="24" height="24" viewBox="0 0 24 24" fill="none" xmlns="http://www.w3.org/2000/svg">
<path d="M9.6864 11.1612C9.6864 11.1612 11.9568 10.9848 11.9568 8.21038C11.9568 5.43238 10.0992 4.08118 7.7448 4.08118H0V19.5924H7.7448C7.7448 19.5924 12.474 19.7472 12.474 15.0132C12.4728 15.012 12.6792 11.1612 9.6864 11.1612V11.1612ZM3.4128 6.83638H7.7448C7.7448 6.83638 8.7984 6.83638 8.7984 8.44918C8.7984 10.0644 8.1792 10.2984 7.476 10.2984H3.4128V6.83638ZM7.5252 16.8348H3.4128V12.6888H7.7448C7.7448 12.6888 9.3144 12.6672 9.3144 14.8188C9.3144 16.6332 8.142 16.8216 7.5252 16.8348V16.8348ZM18.7788 8.02558C13.0536 8.02558 13.0584 13.986 13.0584 13.986C13.0584 13.986 12.6672 19.9152 18.7788 19.9152C18.7788 19.9152 23.8704 20.22 23.8704 15.7908H21.252C21.252 15.7908 21.3384 17.46 18.8664 17.46C18.8664 17.46 16.2456 17.6424 16.2456 14.76H23.9532C23.9544 14.7588 24.804 8.02558 18.7788 8.02558V8.02558ZM21.108 12.6888H16.2192C16.2192 12.6888 16.5384 10.2984 18.8376 10.2984C21.1368 10.2984 21.108 12.6888 21.108 12.6888V12.6888ZM21.7164 4.99198H15.576V6.90478H21.7164V4.99198Z" fill="black"/>
</svg>
