<svg width="24" height="24" viewBox="0 0 24 24" fill="none" xmlns="http://www.w3.org/2000/svg">
<path d="M12 8.66526C10.1637 8.66526 8.6652 10.1638 8.6652 12C8.6652 13.8363 10.1637 15.3348 12 15.3348C13.8362 15.3348 15.3347 13.8363 15.3347 12C15.3347 10.1638 13.8362 8.66526 12 8.66526ZM22.0017 12C22.0017 10.6191 22.0142 9.25065 21.9367 7.87222C21.8591 6.27113 21.4939 4.85017 20.3231 3.67938C19.1498 2.50609 17.7313 2.14334 16.1302 2.06579C14.7493 1.98824 13.3809 2.00074 12.0025 2.00074C10.6215 2.00074 9.25309 1.98824 7.87466 2.06579C6.27358 2.14334 4.85261 2.50859 3.68182 3.67938C2.50853 4.85267 2.14578 6.27113 2.06823 7.87222C1.99068 9.25315 2.00319 10.6216 2.00319 12C2.00319 13.3784 1.99068 14.7494 2.06823 16.1278C2.14578 17.7289 2.51103 19.1499 3.68182 20.3206C4.85512 21.4939 6.27358 21.8567 7.87466 21.9342C9.2556 22.0118 10.624 21.9993 12.0025 21.9993C13.3834 21.9993 14.7518 22.0118 16.1302 21.9342C17.7313 21.8567 19.1523 21.4914 20.3231 20.3206C21.4964 19.1474 21.8591 17.7289 21.9367 16.1278C22.0167 14.7494 22.0017 13.3809 22.0017 12V12ZM12 17.131C9.16053 17.131 6.86898 14.8394 6.86898 12C6.86898 9.16059 9.16053 6.86904 12 6.86904C14.8394 6.86904 17.1309 9.16059 17.1309 12C17.1309 14.8394 14.8394 17.131 12 17.131ZM17.3411 7.85721C16.6781 7.85721 16.1428 7.32185 16.1428 6.6589C16.1428 5.99595 16.6781 5.46059 17.3411 5.46059C18.004 5.46059 18.5394 5.99595 18.5394 6.6589C18.5396 6.81632 18.5087 6.97223 18.4486 7.1177C18.3884 7.26318 18.3002 7.39536 18.1888 7.50667C18.0775 7.61798 17.9454 7.70624 17.7999 7.7664C17.6544 7.82655 17.4985 7.85741 17.3411 7.85721V7.85721Z" fill="black"/>
</svg>
