<svg width="24" height="28" viewBox="0 0 24 28" fill="none" xmlns="http://www.w3.org/2000/svg">
<path d="M7.02897 21.0001H3.29709V8.98235H7.02897V21.0001ZM5.16102 7.34302C3.96768 7.34302 2.99976 6.3546 2.99976 5.16126C2.99976 4.58806 3.22746 4.03833 3.63277 3.63302C4.03809 3.2277 4.58782 3 5.16102 3C5.73422 3 6.28395 3.2277 6.68926 3.63302C7.09458 4.03833 7.32228 4.58806 7.32228 5.16126C7.32228 6.3546 6.35395 7.34302 5.16102 7.34302ZM20.9962 21.0001H17.2724V15.1499C17.2724 13.7557 17.2442 11.9677 15.3321 11.9677C13.3918 11.9677 13.0945 13.4825 13.0945 15.0495V21.0001H9.36662V8.98235H12.9458V10.6217H12.9981C13.4963 9.67745 14.7133 8.681 16.529 8.681C20.3059 8.681 21.0002 11.1681 21.0002 14.3986V21.0001H20.9962Z" fill="black"/>
</svg>
