<svg width="24" height="24" viewBox="0 0 24 24" fill="none" xmlns="http://www.w3.org/2000/svg">
<g clip-path="url(#clip0)">
<path d="M14.9729 3.43196C13.017 2.97749 10.9831 2.97749 9.02726 3.43196C7.89766 2.73916 7.03526 2.42076 6.40806 2.28636C6.14037 2.22594 5.86646 2.19747 5.59206 2.20156C5.46721 2.20494 5.34294 2.21994 5.22086 2.24636L5.20486 2.24956L5.19846 2.25276H5.19366L5.41286 3.02236L5.19366 2.25436C5.08125 2.28612 4.97717 2.34212 4.88872 2.41841C4.80026 2.4947 4.72959 2.58943 4.68166 2.69596C4.20962 3.75309 4.11969 4.94142 4.42726 6.05756C3.63068 7.02293 3.19658 8.23637 3.20006 9.48796C3.20006 11.9728 3.93286 13.6432 5.18246 14.7168C6.05766 15.4688 7.12006 15.8688 8.18566 16.0976C8.00966 16.5856 7.96486 17.1024 8.00006 17.6304V18.5872C7.34886 18.7232 6.89766 18.68 6.57606 18.5744C6.17446 18.4416 5.86566 18.1744 5.56966 17.7904C5.41493 17.5834 5.27074 17.3687 5.13766 17.1472L5.04646 16.9984C4.9313 16.8069 4.8118 16.618 4.68806 16.432C4.38406 15.9824 3.93286 15.4192 3.20326 15.2272L2.42886 15.024L2.02246 16.5728L2.79686 16.776C2.92486 16.808 3.09126 16.928 3.36486 17.3296C3.46566 17.4784 3.56006 17.6336 3.66886 17.8128L3.77766 17.9888C3.92806 18.232 4.10086 18.5008 4.30086 18.7632C4.70566 19.2912 5.25766 19.824 6.07686 20.0944C6.63686 20.28 7.27366 20.3248 8.00006 20.2128V23.2C8.00006 23.4121 8.08435 23.6156 8.23438 23.7656C8.3844 23.9157 8.58789 24 8.80006 24H15.2001C15.4122 24 15.6157 23.9157 15.7657 23.7656C15.9158 23.6156 16.0001 23.4121 16.0001 23.2V17.4992C16.0001 16.9952 15.9777 16.5328 15.8353 16.1024C16.8961 15.8784 17.9505 15.4784 18.8209 14.7264C20.0689 13.6448 20.8001 11.9584 20.8001 9.45916V9.45756C20.796 8.21621 20.3618 7.01466 19.5713 6.05756C19.8785 4.94192 19.7885 3.75422 19.3169 2.69756C19.2693 2.59091 19.1989 2.49597 19.1108 2.4194C19.0226 2.34283 18.9187 2.2865 18.8065 2.25436L18.5873 3.02236C18.8065 2.25436 18.8049 2.25436 18.8033 2.25436L18.8001 2.25276L18.7937 2.24956L18.7793 2.24636C18.7397 2.23608 18.6997 2.22807 18.6593 2.22236C18.5755 2.21013 18.4911 2.20318 18.4065 2.20156C18.1321 2.19751 17.8582 2.22597 17.5905 2.28636C16.9649 2.42076 16.1025 2.73916 14.9729 3.43196V3.43196Z" fill="black"/>
</g>
<defs>
<clipPath id="clip0">
<rect width="24" height="24" fill="white"/>
</clipPath>
</defs>
</svg>
