<svg width="24" height="24" viewBox="0 0 24 24" fill="none" xmlns="http://www.w3.org/2000/svg">
<path d="M12.9997 19.001V7.14098L17.3597 10.771C17.5639 10.9407 17.8272 11.0224 18.0916 10.998C18.3561 10.9736 18.6 10.8452 18.7697 10.641C18.9395 10.4368 19.0211 10.1735 18.9967 9.90905C18.9724 9.64463 18.8439 9.40071 18.6397 9.23098L12.6397 4.23098C12.592 4.19734 12.5419 4.16726 12.4897 4.14098C12.4397 4.14098 12.4097 4.14098 12.3597 4.07098C12.2451 4.02565 12.123 4.00192 11.9997 4.00098C11.8764 4.00192 11.7544 4.02565 11.6397 4.07098C11.5897 4.07098 11.5597 4.07098 11.5097 4.14098C11.4576 4.16726 11.4074 4.19734 11.3597 4.23098L5.35972 9.23098C5.24684 9.325 5.15606 9.44274 5.09384 9.57582C5.03162 9.70891 4.99949 9.85407 4.99972 10.001C4.99927 10.2346 5.08064 10.4611 5.22972 10.641C5.31367 10.7422 5.41677 10.8259 5.53312 10.8873C5.64947 10.9486 5.77678 10.9864 5.90775 10.9985C6.03873 11.0106 6.1708 10.9967 6.2964 10.9577C6.42201 10.9186 6.53868 10.8552 6.63972 10.771L10.9997 7.14098L10.9997 19.001C10.9997 19.2662 11.1051 19.5205 11.2926 19.7081C11.4802 19.8956 11.7345 20.001 11.9997 20.001C12.2649 20.001 12.5193 19.8956 12.7068 19.7081C12.8944 19.5205 12.9997 19.2662 12.9997 19.001Z" fill="black"/>
</svg>
